/* XPM */
static char *n2[] = {
/* columns rows colors chars-per-pixel */
"22 32 3 1 ",
"  c None",
". c black",
"X c white",
/* pixels */
"......................",
"......................",
"......................",
"...XXXXXXXXXXXXXXXX...",
"...XXXXXXXXXXXXXXXX...",
"...XXXXXXXXXXXXXXXX...",
"................XXX...",
"................XXX...",
"................XXX...",
"................XXX...",
"         .......XXX...",
"         .......XXX...",
"         .......XXX...",
"      .......XXX......",
"      .......XXX......",
"      .......XXX......",
"   ......XXXX......   ",
"   ......XXXX......   ",
"   ......XXXX......   ",
"......XXX.......      ",
"......XXX.......      ",
"......XXX.......      ",
"...XXXXXX.............",
"...XXXXXX.............",
"...XXXXXX.............",
"...XXXXXX.............",
"...XXXXXXXXXXXXXXXX...",
"...XXXXXXXXXXXXXXXX...",
"...XXXXXXXXXXXXXXXX...",
"......................",
"......................",
"......................"
};
