/* XPM */
static char *n4[] = {
/* columns rows colors chars-per-pixel */
"22 32 3 1 ",
"  c None",
". c black",
"X c white",
/* pixels */
"......................",
"......................",
"......................",
"...XXX.......XXXXXX...",
"...XXX.......XXXXXX...",
"...XXX.......XXXXXX...",
"...XXX.......XXXXXX...",
"...XXX.......XXXXXX...",
"...XXX.......XXXXXX...",
"...XXX.......XXXXXX...",
"...XXX.......XXXXXX...",
"...XXX.......XXXXXX...",
"...XXX.......XXXXXX...",
"...XXX.......XXXXXX...",
"...XXX.......XXXXXX...",
"...XXX.......XXXXXX...",
"...XXXXXXXXXXXXXXXX...",
"...XXXXXXXXXXXXXXXX...",
"...XXXXXXXXXXXXXXXX...",
".............XXXXXX...",
".............XXXXXX...",
".............XXXXXX...",
"         ....XXXXXX...",
"         ....XXXXXX...",
"         ....XXXXXX...",
"         ....XXXXXX...",
"         ....XXXXXX...",
"         ....XXXXXX...",
"         ....XXXXXX...",
"         .............",
"         .............",
"         ............."
};
