/* XPM */
static char *n9[] = {
/* columns rows colors chars-per-pixel */
"22 32 2 1 ",
"  c black",
". c white",
/* pixels */
"                      ",
"                      ",
"                      ",
"   ................   ",
"   ................   ",
"   ................   ",
"   ...       ......   ",
"   ...       ......   ",
"   ...       ......   ",
"   ...       ......   ",
"   ...       ......   ",
"   ...       ......   ",
"   ...       ......   ",
"   ................   ",
"   ................   ",
"   ................   ",
"             ......   ",
"             ......   ",
"             ......   ",
"             ......   ",
"             ......   ",
"             ......   ",
"   ................   ",
"   ................   ",
"   ................   ",
"   ................   ",
"   ................   ",
"   ................   ",
"   ................   ",
"                      ",
"                      ",
"                      "
};
