/* XPM */
static char *f4484f72cf4c4db38b02b4ec8e919a3cJWth3scjKNWQN7w6[] = {
/* columns rows colors chars-per-pixel */
"32 32 8 1 ",
"  c None",
". c #322125",
"X c #71693F",
"o c #DEBD00",
"O c #DFBD00",
"+ c #DFBE00",
"@ c #F5DB38",
"# c #FFFF3A",
/* pixels */
"                                ",
"                                ",
"              XXXX              ",
"             X@@@@XXX           ",
"            X#@@@@@OOX          ",
"           X#####OOOOX          ",
"           X#####OOOOOX         ",
"          X#####OOXXOOX         ",
"          X####OOOOXOOX         ",
"          X####OOOOXOOX         ",
"         X@@###OOOO@OOX         ",
"         X@@@@OOOOO#OOX         ",
"         XOO@@OOOOO#OX          ",
"         X@@@OOOOO##OX          ",
"         X@@@@OOOX#OOX          ",
"         X@@@@OOX@OOX           ",
"          X@@@OOOOOX            ",
"           XOOOOOOOX            ",
"            XXXOOXX             ",
"               XX               ",
"                                ",
"                                ",
"                                ",
"                                ",
"                                ",
"                                ",
"             ......             ",
"           ..........           ",
"           ..........           ",
"           ..........           ",
"             ......             ",
"                                "
};
