/* XPM */
static char *_d5d8c250f66492a9d1627104b7e4d4bBtOaqAogKhvUmZOc[] = {
/* columns rows colors chars-per-pixel */
"32 32 8 1 ",
"  c None",
". c #322125",
"X c #71693F",
"o c #DFBD00",
"O c #DDBC1A",
"+ c #DFBE1A",
"@ c #F5DB38",
"# c #FFFF3A",
/* pixels */
"              XXXX              ",
"            XX@@@@XX            ",
"          XX@@@@@@@@XX          ",
"         X@@@@@@@@@@@oX         ",
"        X@@@o####ooo@ooX        ",
"        X@@o####oooooooX        ",
"        X@o####oo+oooooX        ",
"       X#o####ooooooooooX       ",
"       X#####oooooooooooX       ",
"       Xo###+oooooooooooX       ",
"       X###oooooooooooooX       ",
"        X#oooooooooooooX        ",
"        XoooXoooo+oooooX        ",
"         XoooXXoooooooX         ",
"         XooooooooooooX         ",
"          XXooooooooXX          ",
"            XXooooXX            ",
"              XXXX              ",
"                                ",
"                                ",
"                                ",
"                                ",
"                                ",
"                                ",
"                                ",
"                                ",
"              ....              ",
"            ........            ",
"           ..........           ",
"            ........            ",
"              ....              ",
"                                "
};
