/* XPM */
static char *n1[] = {
/* columns rows colors chars-per-pixel */
"22 32 3 1 ",
"  c None",
". c black",
"X c gray36",
/* pixels */
"   ................   ",
"   ................   ",
"   ................   ",
"   ......XXXXXXX...   ",
"   ......XXXXXXX...   ",
"   ......XXXXXXX...   ",
"   ...XXXXXXXXXX...   ",
"   ...XXXXXXXXXX...   ",
"   ...XXXXXXXXXX...   ",
"   ...XXXXXXXXXX...   ",
"   ......XXXXXXX...   ",
"   ......XXXXXXX...   ",
"   ......XXXXXXX...   ",
"      ...XXXXXXX...   ",
"      ...XXXXXXX...   ",
"      ...XXXXXXX...   ",
"      ...XXXXXXX...   ",
"      ...XXXXXXX...   ",
"      ...XXXXXXX...   ",
"      ...XXXXXXX...   ",
"      ...XXXXXXX...   ",
"      ...XXXXXXX...   ",
"      ...XXXXXXX...   ",
"      ...XXXXXXX...   ",
"      ...XXXXXXX...   ",
"      ...XXXXXXX...   ",
"      ...XXXXXXX...   ",
"      ...XXXXXXX...   ",
"      ...XXXXXXX...   ",
"      .............   ",
"      .............   ",
"      .............   "
};
