/* XPM */
static char *n5[] = {
/* columns rows colors chars-per-pixel */
"22 32 3 1 ",
"  c None",
". c black",
"X c gray36",
/* pixels */
"......................",
"......................",
"......................",
"...XXXXXXXXXXXXXXXX...",
"...XXXXXXXXXXXXXXXX...",
"...XXXXXXXXXXXXXXXX...",
"...XXX................",
"...XXX................",
"...XXX................",
"...XXX................",
"...XXXXXXXXXXXXXXXX...",
"...XXXXXXXXXXXXXXXX...",
"...XXXXXXXXXXXXXXXX...",
".............XXXXXX...",
".............XXXXXX...",
".............XXXXXX...",
"      .......XXXXXX...",
"      .......XXXXXX...",
"      .......XXXXXX...",
".............XXXXXX...",
".............XXXXXX...",
".............XXXXXX...",
"...XXXXXXXXXXXXXXXX...",
"...XXXXXXXXXXXXXXXX...",
"...XXXXXXXXXXXXXXXX...",
"...XXXXXXXXXXXXXXXX...",
"...XXXXXXXXXXXXXXXX...",
"...XXXXXXXXXXXXXXXX...",
"...XXXXXXXXXXXXXXXX...",
"......................",
"......................",
"......................"
};
