/* XPM */
static char *n7[] = {
/* columns rows colors chars-per-pixel */
"22 32 3 1 ",
"  c None",
". c black",
"X c gray36",
/* pixels */
"......................",
"......................",
"......................",
"...XXXXXXXXXXXXXXXX...",
"...XXXXXXXXXXXXXXXX...",
"...XXXXXXXXXXXXXXXX...",
".............XXXXXX...",
".............XXXXXX...",
".............XXXXXX...",
".............XXXXXX...",
"         ....XXXXXX...",
"         ....XXXXXX...",
"         ....XXXXXX...",
"         ....XXXXXX...",
"         ....XXXXXX...",
"         ....XXXXXX...",
"      .......XXXXXX...",
"      .......XXXXXX...",
"      .......XXXXXX...",
"      ...XXXXXXX......",
"      ...XXXXXXX......",
"      ...XXXXXXX......",
"      ...XXXXXXX...   ",
"      ...XXXXXXX...   ",
"      ...XXXXXXX...   ",
"      ...XXXXXXX...   ",
"      ...XXXXXXX...   ",
"      ...XXXXXXX...   ",
"      ...XXXXXXX...   ",
"      .............   ",
"      .............   ",
"      .............   "
};
