/* XPM */
static char *n8[] = {
/* columns rows colors chars-per-pixel */
"22 32 2 1 ",
"  c black",
". c gray36",
/* pixels */
"                      ",
"                      ",
"                      ",
"   ................   ",
"   ................   ",
"   ................   ",
"   ...       ......   ",
"   ...       ......   ",
"   ...       ......   ",
"   ...       ......   ",
"   ...       ......   ",
"   ...       ......   ",
"   ...       ......   ",
"   ................   ",
"   ................   ",
"   ................   ",
"   ...       ......   ",
"   ...       ......   ",
"   ...       ......   ",
"   ...       ......   ",
"   ...       ......   ",
"   ...       ......   ",
"   ...       ......   ",
"   ...       ......   ",
"   ...       ......   ",
"   ...       ......   ",
"   ................   ",
"   ................   ",
"   ................   ",
"                      ",
"                      ",
"                      "
};
