/* XPM */
static char *_b9a67859b624cacc63576dad4e086f8fKmZDJT8vZUIJmO7[] = {
/* columns rows colors chars-per-pixel */
"16 16 14 1 ",
"  c #3B7D4F",
". c #63AB3F",
"X c #6A8F56",
"o c #67926E",
"O c #80B44A",
"+ c #ADB567",
"@ c #C5C46F",
"# c #EBDF7C",
"$ c #A7BEA3",
"% c #FBEB82",
"& c #FCEB82",
"* c #FFEE83",
"= c #F1FCE5",
"- c #F5FFE8",
/* pixels */
"      .    .    ",
"    o@#&&#@X    ",
"   $=-*****=$.  ",
"  +*--*****--+  ",
" X%**--***--*%X ",
" @****-***-***@ ",
" #************# ",
" &************& ",
" &****-***-***& ",
" #***--***--**# ",
" @**--*****--*@ ",
".O%---*****--=X ",
"..$--*******-$  ",
" ..$=******%$   ",
"    X@#&&#@X..  ",
"           ..   "
};
