/* XPM */
static char *e4b027802af941a1e82e3b766e4ec20bmbbtOhDs59FyiQqD[] = {
/* columns rows colors chars-per-pixel */
"32 32 16 1 ",
"  c None",
". c black",
"X c #005025",
"o c #0D6B3F",
"O c #21005B",
"+ c #14A160",
"@ c #A58A00",
"# c #FFD800",
"$ c #FFE770",
"% c #4000AF",
"& c #5D00FF",
"* c #A775FF",
"= c #1DE286",
"- c #808080",
"; c #AFAFAF",
": c white",
/* pixels */
"             ......             ",
"           ..ooo+++..           ",
"         ..o++++++++o..         ",
"       ..o++++++++++oX;..       ",
"      .++++++++++=++oX;:;.      ",
"     .++++++++++===+oX;;:;.     ",
"    .Xoooo+++++++==++oX;::;.    ",
"   .;;;XXXooo++++++++oX;:::;.   ",
"   .;::;;;XXXXo++++++oX;::::.   ",
"  .;::::::;;;;XXo+++++X;::::;.  ",
"  .;::::::::::;;XXo++oX;::;;@.  ",
" .;:::::::::::::;;XooX--;;@@#@. ",
" .;:::::::::::::::;;-;:;-@####. ",
".;:::::::::::::::::;-:::-@####@.",
".;:::::::::::::::::;-:::-@#$$##.",
".;:::::::::::::::;;;-;:;-@#$###.",
".;:::::::::::;;;;;OOO-;-;;@###@.",
".;:::::::;;;;;OOOOO%OO-;::;###@.",
".;::;;;;;;OOOOO%%&&&%OO;::;@##@.",
" .;;;;OOOOO%%&&&&&&&&%O;::;@##. ",
" .;;;OO%%&&&&&&&&&&&&&O;:::;@#. ",
"  .;OO%&&&&&&&&&***&&%O;:::;;.  ",
"  .OO%&&&&&&&&&****&&OO;::::;.  ",
"   .O%&&&&&&&&****&&&O;;::::.   ",
"   .OO%&&&&&&&&*&&&&&O;::::;.   ",
"    .OO%&&&&&&&&&&&&&O;:::;.    ",
"     .OO%&&&&&&&&&&&%O;::;.     ",
"      .OOO%&&&&&&&&&OO;:;.      ",
"       ..OOO%&&&&&&%O;;..       ",
"         ..OOO%%%%OOO..         ",
"           ..OOOOOO..           ",
"             ......             "
};
