/* XPM */
static char *_51493af2b03460cb118c0cef984891dQtbw5OVHBB7hUnYM[] = {
/* columns rows colors chars-per-pixel */
"32 32 172 2 ",
"   c None",
".  c None",
"X  c #3C7E4F",
"o  c #3C7D50",
"O  c #407F4F",
"+  c #407E50",
"@  c #437F50",
"#  c #407F52",
"$  c #63AB3F",
"%  c #42844D",
"&  c #46864D",
"*  c #46854E",
"=  c #488C4B",
"-  c #458050",
";  c #468650",
":  c #448155",
">  c #498254",
",  c #568752",
"<  c #568653",
"1  c #5E8954",
"2  c #54875F",
"3  c #54885F",
"4  c #54895F",
"5  c #598F5E",
"6  c #628F52",
"7  c #628B55",
"8  c #638B55",
"9  c #638C55",
"0  c #638C56",
"q  c #679153",
"w  c #679255",
"e  c #6D9057",
"r  c #6B9851",
"t  c #789957",
"y  c #709258",
"u  c #769459",
"i  c #769559",
"p  c #77965B",
"a  c #789659",
"s  c #7A9B59",
"d  c #5FA641",
"f  c #5AA044",
"g  c #5FA245",
"h  c #5FA644",
"j  c #60A643",
"k  c #63A346",
"l  c #61A646",
"z  c #63AB41",
"x  c #65AB43",
"c  c #65A844",
"v  c #67A844",
"b  c #68AD42",
"n  c #6DA749",
"m  c #7FAE4D",
"M  c #7BB248",
"N  c #6BA857",
"B  c #6EAC55",
"V  c #75AC58",
"C  c #78B057",
"Z  c #558860",
"A  c #5F8E68",
"S  c #608D65",
"D  c #618E68",
"F  c #6D9262",
"G  c #75986C",
"H  c #6B9571",
"J  c #7EB060",
"K  c #7DB26A",
"L  c #879E5D",
"P  c #81AF4E",
"I  c #89B44F",
"U  c #8AA35D",
"Y  c #95BB55",
"T  c #A3BF5A",
"R  c #98A861",
"E  c #9AA962",
"W  c #9CAE62",
"Q  c #84A177",
"!  c #84A277",
"~  c #96AB79",
"^  c #B3BB67",
"/  c #B1B768",
"(  c #B1B76D",
")  c #B2B86A",
"_  c #B2BF7F",
"`  c #BEC06D",
"'  c #BFC16E",
"]  c #C6C56F",
"[  c #C7C66F",
"{  c #C7C673",
"}  c #D3CE74",
"|  c #D8D175",
" . c #D9D574",
".. c #DED678",
"X. c #E0D977",
"o. c #E4DA79",
"O. c #EADD7B",
"+. c #EADE7B",
"@. c #EEE27D",
"#. c #EFE47E",
"$. c #F3E57F",
"%. c #82A483",
"&. c #94AD88",
"*. c #95B192",
"=. c #97B593",
"-. c #97B692",
";. c #9ABA91",
":. c #AEBE97",
">. c #AEC396",
",. c #AAC1A5",
"<. c #ACC2A6",
"1. c #ACC2A7",
"2. c #AEC6A6",
"3. c #BFD1B8",
"4. c #C5C884",
"5. c #C5C989",
"6. c #D1D188",
"7. c #E4DC82",
"8. c #EBE085",
"9. c #F3E682",
"0. c #F6E781",
"q. c #F6E880",
"w. c #F8E981",
"e. c #FAE981",
"r. c #FBEB82",
"t. c #FBEC82",
"y. c #FDEC83",
"u. c #FEED83",
"i. c #FFEE83",
"p. c #FFEE86",
"a. c #F2E68A",
"s. c #F5EA92",
"d. c #FAEE94",
"f. c #FBEF95",
"g. c #FDEF95",
"h. c #F1E99A",
"j. c #F4EB9B",
"k. c #FEF094",
"l. c #FEF095",
"z. c #FDF097",
"x. c #FDF098",
"c. c #C0CFAB",
"v. c #FBF2A6",
"b. c #FCF3A6",
"n. c #DBE9D1",
"m. c #DCE9D0",
"M. c #E6EECE",
"N. c #E3EFD3",
"B. c #E2EFD7",
"V. c #EEF5D1",
"C. c #EEF5D5",
"Z. c #E3F0D8",
"A. c #E5F1D9",
"S. c #EDF6DB",
"D. c #EAF5DD",
"F. c #EAF5DE",
"G. c #EDF8DF",
"H. c #F7FAD3",
"J. c #F8FAD2",
"K. c #F8FAD3",
"L. c #F3F9DA",
"P. c #F5FBDD",
"I. c #F7FDDC",
"U. c #F6FCDD",
"Y. c #F6FDDE",
"T. c #ECF8E0",
"R. c #ECF8E1",
"E. c #F1FCE5",
"W. c #F3FDE6",
"Q. c #F5FFE5",
"!. c #F5FFE6",
"~. c #F5FFE8",
/* pixels */
"                o o o ; j j & O O O O X   & d d %               ",
"              o @ % 7 9 P P t u u u y e 7 6 k g %     X         ",
"        o o o : A G ( {  .X.@.@.O.O.X.| ] / s w @ o X X         ",
"        X o 3 D %.&.5.6.O.8.$.i.i.e.O.O.} { ~ ! S 3 ; % X       ",
"        o Z *.,.m.A.S.V.z.u.i.u.i.r.u.t.q.s.M.m.,.-.N $ %       ",
"      O , F :.c.D.E.Q.U.k.i.i.u.u.u.i.i.p.k.L.D.3.2.U $ & o     ",
"    X , E ) 8.j.L.Q.Q.U.x.u.p.u.u.u.u.i.p.k.Q.E.G.N.:.W ,       ",
"  X - 7 / ] 0.g.J.Q.Q.Q.b.k.p.u.u.u.i.p.x.b.U.Q.P.V.4./ 7 - X   ",
"  @ 7 L o.9.i.t.k.b.Q.Q.U.J.k.i.i.u.u.k.K.U.~.U.v.z.9.o.L 0 % o ",
"X @ a E @.t.i.i.u.k.J.U.Q.I.k.i.i.p.u.k.U.Q.U.K.f.i.e.$.R i - o ",
"o 7 / [ q.u.i.i.p.u.k.b.Q.I.x.i.i.i.i.x.Y.Y.b.x.i.u.i.9.{ ) 7   ",
"o e ^ } e.i.i.i.u.u.u.k.K.K.k.p.i.i.i.k.J.J.k.p.i.i.u.q.| ^ 0 O ",
"- e } O.r.i.i.i.u.i.i.p.x.k.p.i.i.i.i.p.k.k.p.i.u.u.u.r.O.| e X ",
"o y ..$.i.i.i.i.i.i.i.i.i.i.i.i.i.i.i.i.i.p.i.i.u.u.u.u.$...y % ",
"@ i O.e.r.u.u.u.i.i.i.i.i.i.i.i.i.i.i.i.i.i.i.i.u.u.u.u.e.O.u @ ",
"o i O.r.u.u.u.u.i.i.i.p.k.k.p.i.i.i.i.p.k.k.p.i.i.i.u.r.e.O.u o ",
"- i @.u.i.i.i.i.u.i.i.k.J.J.x.i.i.i.i.x.J.J.k.u.u.u.i.i.t.@.u o ",
"X i O.9.i.i.i.i.u.i.k.b.U.Y.x.p.i.i.p.k.I.Y.b.k.p.u.i.u.w.@.u - ",
"  y ..@.u.u.u.i.p.k.J.U.Q.U.k.p.i.i.i.k.U.Q.U.J.k.u.i.u.@...e o ",
"% e } @.t.i.u.p.x.b.Q.Q.U.J.k.i.i.i.p.k.J.U.Q.Q.b.x.p.t.O.| w - ",
"o 7 { } q.u.p.k.K.U.Q.Q.b.k.p.i.i.i.i.p.x.b.U.Q.Q.H.g.e.} ) e X ",
"& 6 ^ ] $.i.k.b.U.~.Q.U.x.p.p.i.i.i.i.i.i.x.U.Q.Q.U.v.s.{ / 1 @ ",
"j c I T $.g.J.Q.Q.~.Q.I.k.p.i.i.i.i.i.i.i.k.Q.Q.Q.Q.P.M.~ i > o ",
"$ $ M Y 7.j.L.~.~.Q.U.J.k.i.i.i.i.i.i.i.p.x.J.U.~.W.D.n.! 7 @   ",
"$ $ b C >.c.S.~.Q.P.b.g.p.u.i.i.i.i.u.u.p.u.k.b.P.R.3.,.A @ X X ",
"d d $ B ;.2.Z.R.Q.P.x.u.u.u.i.u.i.i.i.u.p.u.u.k.C.B.1.*.Z X   X ",
"% = d c B K 2.3.D.L.x.r.u.u.u.u.i.i.u.u.u.u.e.a.c.<.H Z @       ",
"X % f d g N =.,.n.M.s.e.u.u.p.u.i.i.u.t.t.0.@.7.:.-.5 & o       ",
"  X % % % ; 4 A Q ~ { } O.0.e.e.t.$.$.O.} ] E U V B g f %       ",
"    X   O X o % 9 a ) ] } ..O.O.@.@...| ' / t r c z d f % o     ",
"            o X O @ 1 0 e e u u u i e e 7 6 k z z d = %         ",
"                X X X o o - @ o @ o %   o & d $ z d %           "
};
