/* XPM */
static char *c978028e7a99474ca9cc491aad91c779WA1PvrkSOe242fjd[] = {
/* columns rows colors chars-per-pixel */
"32 32 16 1 ",
"  c None",
". c black",
"X c #005025",
"o c #0D6B3F",
"O c #21005B",
"+ c #14A160",
"@ c #A58A00",
"# c #FFD800",
"$ c #FFE770",
"% c #4000AF",
"& c #5D00FF",
"* c #A775FF",
"= c #1DE286",
"- c #808080",
"; c #AFAFAF",
": c white",
/* pixels */
"             ......             ",
"           ..@##@@@..           ",
"         ..@#########..         ",
"       ..;@###$#####@;;..       ",
"      .;::;@##$$##@@;;::;.      ",
"     .;:::;@####@;;;:::::;.     ",
"    .;:::::;@@@@;:::::::::;.    ",
"   .;::::::;----;::::::::::;.   ",
"   .:;;;;;;-;::;-;;;;;;;::::.   ",
"  .;;;XXXXX-::::;-OOOOO;;;;;;.  ",
"  .XXXooo+oX;::;-OO%&%OOOOOO;.  ",
" .oooo+++++o----OO%&&&&&&&%OOO. ",
" .+++++++++o;;;;O%&&&&&&&&&&%O. ",
".++++==+++oX;::;OO&&&**&&&&&&OO.",
".+++===+++X;:::;;O&&&***&&&&&%O.",
".++++=+++oX;::::;O%&&***&&&&&%O.",
".o+++++++X;:::::;O%&&&***&&&&%O.",
".o++++++oX;:::::;OO&&&&*&&&&&%O.",
".o++++++X;::::::;;O&&&&&&&&&&OO.",
" .+++++oX;:::::::;O%&&&&&&&&%O. ",
" .o++++oX;:::::::;O%&&&&&&&&OO. ",
"  .++++oX;:::::::;OO&&&&&&&%O.  ",
"  .o++oX;::::::::;;O&&&&&&&OO.  ",
"   .++oX;:::::::::;O%&&&&&%O.   ",
"   .++oX;:::::::::;O%&&&&%OO.   ",
"    .+o;::::::::::;OO%&&%OO.    ",
"     .X;::::::::::;;OO%%OO.     ",
"      .;;:::::::::;;;OOOO.      ",
"       ..;;::::::::;;;O..       ",
"         ..;;::::::;;..         ",
"           ..;;;;;;..           ",
"             ......             "
};
