/* XPM */
static char *_1aa5770fc2c4d2adfdc4912967d89fdW2MBJIiL9tJkZAll[] = {
/* columns rows colors chars-per-pixel */
"16 16 14 1 ",
"  c #3B7D4F",
". c #63AB3F",
"X c #6A8F56",
"o c #67926E",
"O c #80B44A",
"+ c #ADB567",
"@ c #C5C46F",
"# c #EBDF7C",
"$ c #A7BEA3",
"% c #FBEB82",
"& c #FCEB82",
"* c #FFEE83",
"= c #F1FCE5",
"- c #F5FFE8",
/* pixels */
"   ..           ",
"  ..O@#&&#@X    ",
"  .$%******%+   ",
"  $--********$  ",
" X=---******-=o ",
" @**---****---@ ",
" #****--**--**#.",
" &************& ",
" &************& ",
" #************# ",
" @****--**--**@ ",
".X%*---****--=X.",
"..$---******-$  ",
" . $=******%+.  ",
"    X@#&&#@X    ",
"                "
};
