/* XPM */
static char *_dfa96e3d5f145dea902941314c351729IRmo7hcwAv4Jnqv[] = {
/* columns rows colors chars-per-pixel */
"32 32 118 2 ",
"   c None",
".  c None",
"X  c #407F4F",
"o  c #407E50",
"O  c #63AB3F",
"+  c #3F814E",
"@  c #40824E",
"#  c #41824F",
"$  c #43864D",
"%  c #4C8251",
"&  c #4B8359",
"*  c #4B8459",
"=  c #4E8858",
"-  c #528452",
";  c #548552",
":  c #558951",
">  c #5C8954",
",  c #52865C",
"<  c #5B8A5B",
"1  c #628B55",
"2  c #648C55",
"3  c #648E54",
"4  c #679054",
"5  c #699453",
"6  c #749657",
"7  c #729358",
"8  c #7C985A",
"9  c #7E9B5A",
"0  c #5EA542",
"q  c #62A643",
"w  c #60A841",
"e  c #64A942",
"r  c #66AC40",
"t  c #69A944",
"y  c #68A94E",
"u  c #6DAB4F",
"i  c #6AAC4D",
"p  c #6AAD4D",
"a  c #74AD48",
"s  c #7CB348",
"d  c #73AE53",
"f  c #73AF5A",
"g  c #5A8B64",
"h  c #628F6A",
"j  c #6F956C",
"k  c #7A9A6B",
"l  c #789D7B",
"z  c #889E5D",
"x  c #85B44D",
"c  c #8DB850",
"v  c #96BB54",
"b  c #86A06D",
"n  c #84A37E",
"m  c #A1AE64",
"M  c #A3B063",
"N  c #AFB668",
"B  c #B9BC6B",
"V  c #B9BC6D",
"C  c #BDBF6C",
"Z  c #B0BB76",
"A  c #BCC17A",
"S  c #C1C26E",
"D  c #C6C56F",
"F  c #C7C76F",
"G  c #C6C570",
"H  c #CECA72",
"J  c #E1D977",
"K  c #E0D778",
"L  c #E4DA7A",
"P  c #E5DC79",
"I  c #EADE7C",
"U  c #EADF7D",
"Y  c #EEE17D",
"T  c #F2E37E",
"R  c #F3E47F",
"E  c #F4E67F",
"W  c #9CB699",
"Q  c #9DB999",
"!  c #9FBB98",
"~  c #ABBE9C",
"^  c #ABC19B",
"/  c #A9C0A5",
"(  c #ABC3A5",
")  c #B7C8A7",
"_  c #B7C8A8",
"`  c #B6CAB0",
"'  c #EEE282",
"]  c #EEE481",
"[  c #F4E684",
"{  c #F6E881",
"}  c #F6E886",
"|  c #FBEA82",
" . c #FBEB82",
".. c #FCEB82",
"X. c #FDED82",
"o. c #FFEE83",
"O. c #FFEE84",
"+. c #F9EC8C",
"@. c #FEEF8E",
"#. c #FEEF8F",
"$. c #F5EA91",
"%. c #F9EC92",
"&. c #FDF199",
"*. c #E5F1D9",
"=. c #E4F1DA",
"-. c #EBF4D8",
";. c #EAF6DE",
":. c #F1F9DB",
">. c #F3FBDF",
",. c #F7FCDC",
"<. c #EDF8E1",
"1. c #F1FAE1",
"2. c #F2FBE0",
"3. c #F6FEE2",
"4. c #F0FBE4",
"5. c #F2FCE5",
"6. c #F5FFE7",
"7. c #F5FFE8",
/* pixels */
"          @ w O O w $ .     .                 . .               ",
"        + $ w O r e : - > > 1 1 1 1 > > - - @ o                 ",
"      + 0 w O O s x B S K L T T T T L K S B 7 3 .               ",
"      @ w e p a c v F H I Y  . . . .Y I H F z 8 - %             ",
"    . + w p ! ^ ] {  .X.X.X.o.o.X.O.X.X.X...R Y N m % .         ",
"    . # y f ( _ $.+.X.X.o.o.o.o.O.X.X.O.X.X. . .C N < & .       ",
"    . & ! ( <.<.3.,.@.o.o.o.X.O.O.X.O.X.O.O.X.X. .[ ~ W & .     ",
"    . , / ` 5.7.7.3.&.@.O.o.O.X.X.O.X.O.O.X.O.O.#.%._ ( , o     ",
"  o 2 k *.<.6.7.7.6.3.,.#.X.X.O.o.o.o.O.X.O.X.#.,.3.<.=.l h . . ",
"  . 7 b -.2.3.3.6.7.7.3.&.#.O.X.o.o.o.X.O.X.#.&.3.6.4.;.n j o . ",
"  - B G +.#.@.&.3.7.7.6.3.,.@.O.o.o.X.O.X.@.,.3.7.7.7.2.^ V - . ",
"  ; S H X.X.O.@.,.3.3.3.7.3.&.@.O.o.O.O.@.&.3.6.3.3.3.:.K S :   ",
"  > K I X.X.O.O.#.#.@.&.3.7.3.,.@.o.o.@.,.3.7.3.&.#.#.#.I J O O ",
"  > L Y X.O.X.O.X.X.X.@.,.3.3.,.@.o.o.@.,.3.3.,.#.X.X.X.T L s O ",
"  1 T ..X.O.X.X.O.X.O.O.@.@.#.@.O.o.o.O.@.@.#.#.X.O.X.X.E T 3 X ",
"  1 T ..O.X.O.O.X.O.X.O.X.O.O.X.o.o.o.o.O.X.O.X.O.X.X.....T 1 X ",
"  3 T  .O.X.O.X.o.o.o.o.O.X.O.X.o.o.o.o.O.O.X.O.o.o.o.o.X.R 1   ",
"  > R  .o.O.X.O.o.o.o.o.X.O.X.X.o.o.o.o.X.O.O.X.o.o.o.o. .R 1   ",
"  > L Y X.o.O.X.o.o.o.o.O.o.X.X.o.o.o.o.O.X.X.X.o.o.o.X.Y L >   ",
"  > L Y X.o.X.O.o.o.O.O.@.@.#.#.O.o.o.O.@.#.@.#.O.o.o.X.I L >   ",
"  - S H X.X.X.X.o.O.o.@.,.3.3.,.@.o.o.@.,.3.3.,.#.X.....H A -   ",
"+ : B F  .X.X.O.@.@.@.&.3.6.3.,.@.o.o.@.,.3.6.3.&.#.#.+.F B : @ ",
"q q 6 z {  .X.#.,.3.3.3.6.3.&.#.O.o.o.O.@.&.3.7.3.3.,.-.b 7 O w ",
"O e 5 8 ' } #.&.3.7.7.7.3.,.#.O.o.o.o.o.X.@.,.3.6.6.;.*.k 2 O w ",
"O O O u ~ ) >.3.6.6.6.3.&.#.O.X.O.O.X.O.X.X.#.&.3.2._ ( , . # # ",
"0 O O p ! / ;.<.6.6.3.,.#...O.X.X.X.O.X.X.X...#.:.<./ ! & . . . ",
"@ $ O q = g / ` <.2.&.#.X.O.X.O.O.X.X.O.O.X. . .Z Z d u     . . ",
"  + 0 0 + & W / =.-.+...X.X.O.X.X.O.X.X.X...{ I N M t q +     . ",
"    + @   . & , k b G H I I  ...X. .Y I H F z 8 - % + +         ",
"              . 2 7 B S K J [ T { T L K S B 7 2 .               ",
"                X X ; ; > > 1 1 1 1 > > ; - @ .                 ",
"                                          . .                   "
};
