/* XPM */
static char *_660e5a725b845db80acded20d447f84HrvZDwITz2v4CJsF[] = {
/* columns rows colors chars-per-pixel */
"16 16 14 1 ",
"  c None",
". c None",
"X c #6A8F56",
"o c #67926E",
"O c #80B44A",
"+ c #ADB567",
"@ c #C5C46F",
"# c #EBDF7C",
"$ c #A7BEA3",
"% c #FBEB82",
"& c #FCEB82",
"* c #FFEE83",
"= c #F1FCE5",
"- c #F5FFE8",
/* pixels */
"   ..           ",
"  ..X@#&&#@X    ",
"   $%******=$.. ",
"  $-*******--$..",
" X=--*****---%O.",
" @*--*****--**@ ",
" #**--***--***# ",
" &***-***-****& ",
" &************& ",
" #************# ",
" @***-***-****@ ",
" X%*--***--**%X ",
"  +--*****--*+  ",
"  .$=*****-=$   ",
"    X@#&&#@o    ",
"    .    .      "
};
