/* XPM */
static char *_61436e915da4da6b3d6a445d1c15703eIvxyCHfVKDm1nlc[] = {
/* columns rows colors chars-per-pixel */
"32 32 121 2 ",
"   c None",
".  c None",
"X  c #407F4F",
"o  c #427F50",
"O  c #407F52",
"+  c #63AB3F",
"@  c #3F814E",
"#  c #40824E",
"$  c #41824F",
"%  c #43864D",
"&  c #4C8251",
"*  c #4B8359",
"=  c #4B8459",
"-  c #4E8858",
";  c #528452",
":  c #538552",
">  c #548552",
",  c #558851",
"<  c #5C8954",
"1  c #5D8954",
"2  c #52865C",
"3  c #5B8A5B",
"4  c #618B55",
"5  c #628B55",
"6  c #648C55",
"7  c #648E54",
"8  c #679054",
"9  c #699453",
"0  c #749657",
"q  c #729358",
"w  c #7C985A",
"e  c #7E9B5A",
"r  c #5EA542",
"t  c #61A643",
"y  c #60A841",
"u  c #64A941",
"i  c #66AC40",
"p  c #69A944",
"a  c #68A94E",
"s  c #6DAB4F",
"d  c #6AAC4D",
"f  c #6FAE4E",
"g  c #74AD48",
"h  c #7CB348",
"j  c #73AE53",
"k  c #73AF5A",
"l  c #5A8B64",
"z  c #628F6A",
"x  c #6F956C",
"c  c #7A9A6B",
"v  c #789D7B",
"b  c #889E5D",
"n  c #85B44D",
"m  c #8DB850",
"M  c #96BB54",
"N  c #86A06D",
"B  c #A1AE64",
"V  c #AFB668",
"C  c #B0B768",
"Z  c #B9BC6B",
"A  c #BABE6A",
"S  c #B9BC6D",
"D  c #BDBF6C",
"F  c #B0BB76",
"G  c #BCC17A",
"H  c #C1C26E",
"J  c #C6C56F",
"K  c #C6C570",
"L  c #CECA72",
"P  c #E0D778",
"I  c #E4DA7A",
"U  c #E5DC79",
"Y  c #EADE7C",
"T  c #EADF7D",
"R  c #EEE17D",
"E  c #F2E37E",
"W  c #F3E47F",
"Q  c #F4E77F",
"!  c #9CB699",
"~  c #9DB899",
"^  c #9FBB98",
"/  c #ABBE9C",
"(  c #ABC09B",
")  c #AAC0A5",
"_  c #ABC3A5",
"`  c #B7C8A7",
"'  c #B7C8A8",
"]  c #B6CAB0",
"[  c #EEE282",
"{  c #EEE481",
"}  c #F4E684",
"|  c #F6E881",
" . c #F6E886",
".. c #FAEA81",
"X. c #FBEB82",
"o. c #FCEB82",
"O. c #FDED82",
"+. c #FFEE83",
"@. c #FFEE84",
"#. c #F9EC8C",
"$. c #FDEF8E",
"%. c #FEEF8F",
"&. c #F5EA91",
"*. c #F9EC92",
"=. c #FDF199",
"-. c #E5F1D9",
";. c #E4F1DA",
":. c #EBF4D8",
">. c #EAF6DE",
",. c #F2FADB",
"<. c #F1F9DD",
"1. c #F3FBDF",
"2. c #F7FCDC",
"3. c #EDF8E1",
"4. c #F2FBE0",
"5. c #F0FBE3",
"6. c #F6FDE2",
"7. c #F6FEE2",
"8. c #F2FCE5",
"9. c #F5FFE7",
"0. c #F5FFE8",
/* pixels */
"          # y + + y %                                           ",
"        @ % y + y t , > < < 5 5 5 5 < < > > o o                 ",
"      @ t y + u 9 0 S H P I E Q } E I P H S q 6 .     .         ",
"      @ r y d s e b J L Y R ..o.o...R Y L J N c 2 = # # # #     ",
"        @ - ~ ( { Q X.O.O.O.+.+.O.O.O.O.O.#.:.-.) ~ d y t r @   ",
"      . * l ) `  .X.O.O.+.+.+.+.O.O.O.@.O.*.<.3.' _ k d + + % @ ",
"      * ! ) >.<.%.+.+.+.+.+.+.+.O.@.O.O.+.%.7.9.3.3.) ~ d + t + ",
"    . 2 ) ] 5.7.=.%.@.+.+.+.+.+.@.O.@.@.%.=.7.9.0.3.' ( f + + + ",
"  o 6 c -.3.0.9.7.2.%.O.+.+.+.+.@.@.O.%.2.7.9.9.0.0.&.{ m h i u ",
"  o q N :.<.0.0.0.7.%.O.+.+.+.+.O.O.O.%.7.0.9.9.9.2.#.| M n u y ",
"  ; Z K #.=.7.0.0.7.%.O.+.+.+.+.@.O.O.%.7.0.9.7.=.%.O...J G , # ",
"  > H L o.%.2.7.0.7.=.%.@.+.+.+.@.@.%.=.7.9.7.2.%.O.O.O.L H >   ",
"  < P Y O.@.%.=.7.9.7.2.%.O.+.+.+.%.2.7.9.7.=.%.@.+.O.O.U P 1   ",
"  < I R O.@.O.%.2.7.9.7.%.O.+.@.+.%.7.9.7.2.%.O.+.O.+.O.R U 1   ",
"  5 E o.O.@.O.@.%.=.7.7.%.O.@.O.O.%.7.7.=.%.@.+.+.+.O.+.Q E 7   ",
"  5 E o.@.O.@.O.O.%.2.2.%.O.O.@.O.%.2.2.%.+.+.+.+.+.+.+.Q E 7   ",
"  4 } X.+.+.+.+.+.+.%.%.+.+.+.+.O.@.%.%.@.+.+.+.+.+.+.+.O.W 4   ",
"  4 W ..+.+.+.+.+.+.+.+.+.+.+.+.@.O.+.@.+.+.+.+.+.+.+.+.X.W 4   ",
"  1 P R O.+.O.@.+.+.+.+.+.+.+.+.+.+.+.+.+.+.@.O.+.+.+.O.R I 1   ",
"  1 I R O.+.@.O.+.+.%.%.+.+.+.+.+.+.%.%.@.+.+.@.+.+.+.O.Y P 1   ",
"  ; H L O.O.O.@.+.%.2.2.%.+.+.+.+.%.2.2.%.O.@.O.@.O.O...L H ; @ ",
"  ; Z J ..O.O.O.%.=.7.7.%.+.+.+.+.%.7.7.=.%.O.O.O.@.O...J Z ;   ",
"  X 0 b Q X.O.%.2.7.9.7.%.+.@.O.+.%.2.0.7.2.%.O.@.O.o.| b q $ . ",
"  # 4 w W W %.=.7.9.7.2.%.+.+.@.+.%.2.7.9.7.=.%.@.@...Y w 5 .   ",
"    X ; V G ,.7.9.7.=.%.@.O.@.O.@.O.%.=.7.0.8.2.%...G V , X     ",
"      & B F :.5.9.7.%.O.O.@.O.@.O.O.O.%.7.0.0.8.*.} V B &       ",
"      # p j ) ] 3.1.%.O.@.O.@.O.@.O.O.%.7.0.8.3.` / 3 &         ",
"      # r a ~ ) -.:.#.O.O.O.O.@.@.@.O.%.<.3.3.-.) ! *           ",
"        # # = 2 c N J L Y E Q o.O...R R [ F v v 2 &             ",
"        . . . . 7 0 Z H P I Q Q W W I I H S x z #               ",
"              @ r t > > 1 < < 4 4 7 g g > ; o .   X             ",
"              # + t #             % y r . . .     .             "
};
