/* XPM */
static char *_12f9625b0e245d4c3dce60f625548573MPu90nV2GWpJYhC[] = {
/* columns rows colors chars-per-pixel */
"32 32 16 1 ",
"  c None",
". c black",
"X c #005025",
"o c #0D6B3F",
"O c #21005B",
"+ c #14A160",
"@ c #A58A00",
"# c #FFD800",
"$ c #FFE770",
"% c #4000AF",
"& c #5D00FF",
"* c #A775FF",
"= c #1DE286",
"- c #808080",
"; c #AFAFAF",
": c white",
/* pixels */
"             ......             ",
"           ..;;;;;;..           ",
"         ..;;::::::;;..         ",
"       ..O;;;::::::::;;..       ",
"      .OOOO;;;:::::::::;;.      ",
"     .OO%%OO;;::::::::::;X.     ",
"    .OO%&&%OO;::::::::::;o+.    ",
"   .OO%&&&&%O;:::::::::;Xo++.   ",
"   .O%&&&&&%O;:::::::::;Xo++.   ",
"  .OO&&&&&&&O;;::::::::;Xo++o.  ",
"  .O%&&&&&&&OO;:::::::;Xo++++.  ",
" .OO&&&&&&&&%O;:::::::;Xo++++o. ",
" .O%&&&&&&&&%O;:::::::;Xo+++++. ",
".OO&&&&&&&&&&O;;::::::;X++++++o.",
".O%&&&&&*&&&&OO;:::::;Xo++++++o.",
".O%&&&&***&&&%O;:::::;X+++++++o.",
".O%&&&&&***&&%O;::::;Xo+++=++++.",
".O%&&&&&***&&&O;;:::;X+++===+++.",
".OO&&&&&&**&&&OO;::;Xo+++==++++.",
" .O%&&&&&&&&&&%O;;;;o+++++++++. ",
" .OOO%&&&&&&&%OO----o+++++oooo. ",
"  .;OOOOOO%&%OO-;::;Xo+oooXXX.  ",
"  .;;;;;;OOOOO-;::::-XXXXX;;;.  ",
"   .::::;;;;;;;-;::;-;;;;;;:.   ",
"   .;::::::::::;----;::::::;.   ",
"    .;:::::::::;@@@@;:::::;.    ",
"     .;:::::;;;@####@;:::;.     ",
"      .;::;;@@##$$##@;::;.      ",
"       ..;;@#####$###@;..       ",
"         ..#########@..         ",
"           ..@@@##@..           ",
"             ......             "
};
