/* XPM */
static char *ef3de7151a6f4cafc7176882e915d92fXu3kexZPnWkF3FA2[] = {
/* columns rows colors chars-per-pixel */
"32 32 16 1 ",
"  c None",
". c black",
"X c #005025",
"o c #0D6B3F",
"O c #21005B",
"+ c #14A160",
"@ c #A58A00",
"# c #FFD800",
"$ c #FFE770",
"% c #4000AF",
"& c #5D00FF",
"* c #A775FF",
"= c #1DE286",
"- c #808080",
"; c #AFAFAF",
": c white",
/* pixels */
"             ......             ",
"           ..OOOOOO..           ",
"         ..OOO%%%%OOO..         ",
"       ..;;O%&&&&&&%OOO..       ",
"      .;:;OO&&&&&&&&&%OOO.      ",
"     .;::;O%&&&&&&&&&&&%OO.     ",
"    .;:::;O&&&&&&&&&&&&&%OO.    ",
"   .;::::;O&&&&&*&&&&&&&&%OO.   ",
"   .::::;;O&&&****&&&&&&&&%O.   ",
"  .;::::;OO&&****&&&&&&&&&%OO.  ",
"  .;;:::;O%&&***&&&&&&&&&%OO;.  ",
" .#@;:::;O&&&&&&&&&&&&&%%OO;;;. ",
" .##@;::;O%&&&&&&&&%%OOOOO;;;;. ",
".@##@;::;OO%&&&%%OOOOO;;;;;;::;.",
".@###;::;-OO%OOOOO;;;;;:::::::;.",
".@###@;;-;-OOO;;;;;:::::::::::;.",
".###$#@-;:;-;;;:::::::::::::::;.",
".##$$#@-:::-;:::::::::::::::::;.",
".@####@-:::-;:::::::::::::::::;.",
" .####@-;:;-;;:::::::::::::::;. ",
" .@#@@;;--XooX;;:::::::::::::;. ",
"  .@;;::;Xo++oXX;;::::::::::;.  ",
"  .;::::;X+++++oXX;;;;::::::;.  ",
"   .::::;Xo++++++oXXXX;;;::;.   ",
"   .;:::;Xo++++++++oooXXX;;;.   ",
"    .;::;Xo++==+++++++ooooX.    ",
"     .;:;;Xo+===++++++++++.     ",
"      .;:;Xo++=++++++++++.      ",
"       ..;Xo++++++++++o..       ",
"         ..o++++++++o..         ",
"           ..+++ooo..           ",
"             ......             "
};
