/* XPM */
static char *coins[] = {
/* columns rows colors chars-per-pixel */
"32 32 6 1 ",
"  c #3B7D4F",
". c #63AB3F",
"X c #FFB700",
"o c #FFD600",
"O c #FFE900",
"+ c #FFFC00",
/* pixels */
"                                ",
"                                ",
"                                ",
"                                ",
"    ..                      ..  ",
"    ..                      ..  ",
"                            ....",
"                            ....",
"..        ..OOOOOOOO          ..",
"..        ..OOOOOOOO          ..",
"          OOoo++++++OO          ",
"          OOoo++++++OO          ",
"        OOooooOOOO++++OO        ",
"        OOooooOOOO++++OO        ",
"      OOooooOO++++OO++++OO      ",
"      OOooooOO++++OO++++OO      ",
"      OOooOO++++++++OO++OO      ",
"      OOooOO++++++++OO++OO      ",
"..    OOooOOoo++++++OO++OO      ",
"..    OOooOOoo++++++OO++OO      ",
"      OOXXXXOOoo++OOooooOO      ",
"      OOXXXXOOoo++OOooooOO      ",
"        OOXXXXOOOOooooOO        ",
"        OOXXXXOOOOooooOO        ",
"          OOXXXXooooOO          ",
"          OOXXXXooooOO          ",
"          ..OOOOOOOO      ..    ",
"          ..OOOOOOOO      ..    ",
"                      ......    ",
"                      ......    ",
"                      ....      ",
"                      ....      "
};
