/* XPM */
static char *_88de239fe024749d9e77ca970888d94mX9t2Y8wGMYl2GQB[] = {
/* columns rows colors chars-per-pixel */
"16 16 5 1 ",
"  c #4F1D4C",
". c #3B7D4F",
"X c gray36",
"o c #63AB3F",
"O c gray59",
/* pixels */
"................",
"................",
"..o....  .....o.",
".......  .....oo",
"o....o.  ......o",
".....o OO ......",
"...... OO o.....",
"...... OO ......",
"....  OOOO  ....",
"o.. XOOOOOOX ...",
"... XXOOOOXX ...",
"... XXXXXXXX ...",
"....  XXXX  ....",
".....o    ...o..",
"...........ooo..",
"...........oo..."
};
