/* XPM */
static char *enemy[] = {
/* columns rows colors chars-per-pixel */
"32 32 5 1 ",
"  c #4F1D4C",
". c #3B7D4F",
"X c gray36",
"o c #63AB3F",
"O c gray59",
/* pixels */
"................................",
"................................",
"................................",
"................................",
"....oo........    ..........oo..",
"....oo........    ..........oo..",
"..............    ..........oooo",
"..............    ..........oooo",
"oo........oo..    ............oo",
"oo........oo..    ............oo",
"..........oo  OOOO  ............",
"..........oo  OOOO  ............",
"............  OOOO  oo..........",
"............  OOOO  oo..........",
"............  OOOO  ............",
"............  OOOO  ............",
"........    OOOOOOOO    ........",
"........    OOOOOOOO    ........",
"oo....  XXOOOOOOOOOOOOXX  ......",
"oo....  XXOOOOOOOOOOOOXX  ......",
"......  XXXXOOOOOOOOXXXX  ......",
"......  XXXXOOOOOOOOXXXX  ......",
"......  XXXXXXXXXXXXXXXX  ......",
"......  XXXXXXXXXXXXXXXX  ......",
"........    XXXXXXXX    ........",
"........    XXXXXXXX    ........",
"..........oo        ......oo....",
"..........oo        ......oo....",
"......................oooooo....",
"......................oooooo....",
"......................oooo......",
"......................oooo......"
};
