/* XPM */
static char *floor2[] = {
/* columns rows colors chars-per-pixel */
"32 32 11 1 ",
"  c #2C354D",
". c #3B7D4F",
"X c #404973",
"o c #CF752B",
"O c #9C2A70",
"+ c #FF5277",
"@ c #63AB3F",
"# c #F0B541",
"$ c #FFC2A1",
"% c #A3A7C2",
"& c #DFE0E8",
/* pixels */
"....................XXXX........",
"....................XXXX........",
"..................XX&&&&XX......",
"..................XX&&&&XX......",
"....@@..........XX%%####%%XX  ..",
"....@@..........XX%%####%%XX  ..",
"............    XX&&oooo&&XX@@  ",
"............    XX&&oooo&&XX@@  ",
"@@........  @@@@XX%%XXXX%%XX..  ",
"@@........  @@@@XX%%XXXX%%XX..  ",
"..........  ......XX..  XX    ..",
"..........  ......XX..  XX    ..",
"............          ..........",
"............          ..........",
"........OOOO......@@............",
"........OOOO......@@............",
"......OO$$$$OO..................",
"......OO$$$$OO..................",
"@@..OO$$####$$OO................",
"@@..OO$$####$$OO................",
"..OO++$$oooo$$++OO..............",
"..OO++$$oooo$$++OO..............",
"..OO++OO$$$$OO++OO    ..........",
"..OO++OO$$$$OO++OO    ..........",
"..  OOOO++++OOOO@@@@@@  ........",
"..  OOOO++++OOOO@@@@@@  ........",
"  @@@@..OOOO    ....  ....@@....",
"  @@@@..OOOO    ....  ....@@....",
"  ......  ......    ..@@@@@@....",
"  ......  ......    ..@@@@@@....",
"..      ..............@@@@......",
"..      ..............@@@@......"
};
