/* XPM */
static char *floor[] = {
/* columns rows colors chars-per-pixel */
"32 32 2 1 ",
"  c #3B7D4F",
". c #63AB3F",
/* pixels */
"                                ",
"                                ",
"                                ",
"                                ",
"    ..                      ..  ",
"    ..                      ..  ",
"                            ....",
"                            ....",
"..        ..                  ..",
"..        ..                  ..",
"          ......                ",
"          ......                ",
"            ....    ..          ",
"            ....    ..          ",
"                  ..            ",
"                  ..            ",
"                                ",
"                                ",
"..                              ",
"..                              ",
"                                ",
"                                ",
"                                ",
"                                ",
"                                ",
"                                ",
"          ..              ..    ",
"          ..              ..    ",
"                      ......    ",
"                      ......    ",
"                      ....      ",
"                      ....      "
};
