/* XPM */
static char *_9ef15a99cdd46cae4441d7398abd23e9X87FhTT0vWH63u4[] = {
/* columns rows colors chars-per-pixel */
"16 16 2 1 ",
"  c #3B7D4F",
". c #63AB3F",
/* pixels */
"                ",
"                ",
"  .           . ",
"              ..",
".    .         .",
"     ...        ",
"      ..  .     ",
"         .      ",
"                ",
".               ",
"                ",
"                ",
"                ",
"     .       .  ",
"           ...  ",
"           ..   "
};
