/* XPM */
static char *player[] = {
/* columns rows colors chars-per-pixel */
"32 32 13 1 ",
"  c None",
". c #6A8F56",
"X c #67926E",
"o c #80B44A",
"O c #ADB567",
"+ c #C5C46F",
"@ c #EBDF7C",
"# c #A7BEA3",
"$ c #FBEB82",
"% c #FCEB82",
"& c #FFEE83",
"* c #F1FCE5",
"= c #F5FFE8",
/* pixels */
"                                ",
"                                ",
"        ..++@@%%%%@@++..        ",
"        ..++@@%%%%@@++..        ",
"      OO%%%%%%%%%%%%%%**##      ",
"      OO%%%%%%%%%%%%%%**##      ",
"    ##==%%%%%%%%%%%%======##    ",
"    ##==%%%%%%%%%%%%======##    ",
"  ..**====%%%%%%%%======%%%%..  ",
"  ..**====%%%%%%%%======%%%%..  ",
"  ++%%%%====%%%%====%%%%%%%%++  ",
"  ++%%%%====%%%%====%%%%%%%%++  ",
"  @@%%%%%%%%%%%%%&&%&&%%%%%%@@  ",
"  @@%&%%%%%&%%%%%%&&%%%%%%%%@@  ",
"  %%&&%%%%&%%%%%%%%%%%%%%%%%%%  ",
"  %%&%%%%%&%%%%%%%%%%%%%%%%%%%  ",
"  %%%%%%%%%%%%%%%%%%%%%%%%%%%%  ",
"  %%%%%%%%%%%%%%%%%%%%%%%%%%%%  ",
"  @@%%%%====%%%%====%%%%%%%%@@  ",
"  @@%%%%====%%%%====%%%%%%%%@@  ",
"  ++======%%%%%%%%======%%%%++  ",
"  ++======%%%%%%%%======%%%%++  ",
"  XX**==&%%%%%%%%%%%======**..  ",
"  XX**==&%%%%%%%%%%%======**..  ",
"    ##%%%%%%%%%%%%%%%%====##    ",
"    ##%%%%%%%%%%%%%%%%====##    ",
"      OO%%%%%%%%%%%%%%%%##      ",
"      OO%%%%%%%%%%%%%%%%##      ",
"        ..++@@%%%%@@++oo        ",
"        ..++@@%%%%@@++oo        ",
"                                ",
"                                "
};
