/* XPM */
static char *_7891c7fb1ba4d53ac28b6c645d56b055PsgvBrG3phNwMHt[] = {
/* columns rows colors chars-per-pixel */
"16 16 14 1 ",
"  c #3B7D4F",
". c #63AB3F",
"X c #6A8F56",
"o c #67926E",
"O c #80B44A",
"+ c #ADB567",
"@ c #C5C46F",
"# c #EBDF7C",
"$ c #A7BEA3",
"% c #FBEB82",
"& c #FCEB82",
"* c #FFEE83",
"= c #F1FCE5",
"- c #F5FFE8",
/* pixels */
"                ",
"    X@#&&#@X    ",
"  .+%******=$ . ",
"  $-******---$..",
".X=--****---*%X.",
" @**--**--****@ ",
" #************# ",
" &************& ",
" &************& ",
".#**--**--****# ",
" @---****---**@ ",
" o=-******---=X ",
"  $********--$  ",
"   +%******%$.  ",
"    X@#&&#@O..  ",
"           ..   "
};
