/* XPM */
static char *quit_title[] = {
/* columns rows colors chars-per-pixel */
"64 32 6 1 ",
"  c None",
"  c None",
"X c black",
"o c #838383",
"O c #F4F4F4",
"+ c white",
/* pixels */
"                                                                ",
"                                                                ",
"                                                                ",
"                                                                ",
"                                                                ",
"                                                                ",
"     +++++++++     +++       +++   +++++++++   ++++++++++++++   ",
"    +++++++++++    +++       +++   +++++++++   ++++++++++++++   ",
"   +++++++++++++   +++       +++   +++++++++   ++++++++++++++   ",
"   ++++XXXXX++++   +++       +++   XXX+++XXX   XXXXX++++XXXXX   ",
"   +++X     X+++   +++       +++      +++           ++++        ",
"   +++       +++   +++       +++      +++           ++++        ",
"   +++       +++   +++       +++      +++           ++++        ",
"   +++       +++   +++       +++      +++           ++++        ",
"   +++       +++   +++       +++      +++           ++++        ",
"   +++       +++   +++       +++      +++           ++++        ",
"   +++       +++   +++       +++      +++           ++++        ",
"   +++   +++ +++   +++       +++      +++           ++++        ",
"   +++   +++++++   +++       +++      +++           ++++        ",
"   +++   +++++XX   +++       +++      +++           ++++        ",
"   ++++  X++++X    ++++     ++++      +++           ++++        ",
"   ++++++X++++++   +++++++++++++   +++++++++        ++++        ",
"   X+++++++X++++   X+++++++++++X   +++++++++        ++++        ",
"    X++++++ X+++    X+++++++++X    +++++++++        ++++        ",
"     XXXXXX  XXX     XXXXXXXXX     XXXXXXXXX        XXXX        ",
"                                                                ",
"                                                                ",
"                                                                ",
"                                                                ",
"                                                                ",
"                                                                ",
"                                                                "
};
