/* XPM */
static char *start_title[] = {
/* columns rows colors chars-per-pixel */
"64 32 3 1 ",
"  c None",
". c black",
"X c white",
/* pixels */
"                                                                ",
"                                                                ",
"                                                                ",
"                                                                ",
"                                                                ",
" XXXXXXXXXXX     XXX                   XX        XXX        XXX ",
" XXXXXXXXXXXX    XXX                  XXXX       XXX        XXX ",
" XXXXXXXXXXXXX   XXX                 XXXXXX      XXX        XXX ",
" XXX.......XXXX  XXX                XXXXXXXX     XXXX      XXXX ",
" XXX       .XXX  XXX               XXXXXXXXXX    XXXXX    XXXXX ",
" XXX        XXX  XXX              XXXXX..XXXXX   XXXXXX  XXXXXX ",
" XXX        XXX  XXX             XXXXX.  .XXXXX  .XXXXXXXXXXXX. ",
" XXX        XXX  XXX             XXXX.    .XXXX   .XXXXXXXXXX.  ",
" XXX       XXXX  XXX             XXX.      .XXX    .XXXXXXXX.   ",
" XXXXXXXXXXXXX.  XXX             XXX        XXX     .XXXXXX.    ",
" XXXXXXXXXXXX.   XXX             XXX        XXX      .XXXX.     ",
" XXXXXXXXXXX.    XXX             XXXXXXXXXXXXXX       XXXX      ",
" XXX........     XXX             XXXXXXXXXXXXXX       XXXX      ",
" XXX             XXX             XXXXXXXXXXXXXX       XXXX      ",
" XXX             XXX             XXX........XXX       XXXX      ",
" XXX             XXX             XXX        XXX       XXXX      ",
" XXX             XXX             XXX        XXX       XXXX      ",
" XXX             XXXXXXXXXXXXXX  XXX        XXX       XXXX      ",
" XXX             XXXXXXXXXXXXXX  XXX        XXX       XXXX      ",
" XXX             XXXXXXXXXXXXXX  XXX        XXX       XXXX      ",
" ...             ..............  ...        ...       ....      ",
"                                                                ",
"                                                                ",
"                                                                ",
"                                                                ",
"                                                                ",
"                                                                "
};
