/* XPM */
static char *wall[] = {
/* columns rows colors chars-per-pixel */
"32 32 6 1 ",
"  c #291D2B",
". c None",
"X c #E64539",
"o c #AD2F45",
"O c None",
"+ c #FF8933",
/* pixels */
"................................",
"................................",
"..............    ..............",
"..............    ..............",
"....OO......  ++++  ........OO..",
"....OO......  ++++  ........OO..",
"..........  XX    XX  ......OOOO",
"..........  XX    XX  ......OOOO",
"OO......    XXXXXXXX    ......OO",
"OO......    XXXXXXXX    ......OO",
"......  oo  ooXXXXoo  oo  ......",
"......  oo  ooXXXXoo  oo  ......",
"......  XXXX  oooo  XXXX  ......",
"......  XXXX  oooo  XXXX  ......",
"........  XXXX    XXXX  ........",
"........  XXXX    XXXX  ........",
"..........    XXXX    ..........",
"..........    XXXX    ..........",
"OO......    oo    oo    ........",
"OO......    oo    oo    ........",
"......  oo    XXXX    oo  ......",
"......  oo    XXXX    oo  ......",
"......  XX  oo    oo  XX  ......",
"......  XX  oo    oo  XX  ......",
"......  XX  XXooooXX  XX  ......",
"......  XX  XXooooXX  XX  ......",
"......  ooXX        XXoo  OO....",
"......  ooXX        XXoo  OO....",
"........  ooXXXXXXXXoo  OOOO....",
"........  ooXXXXXXXXoo  OOOO....",
"..........            OOOO......",
"..........            OOOO......"
};
